<?xml version="1.0" standalone="no"?>
<svg xmlns:xlink="http://www.w3.org/1999/xlink" id="wave" style="transform:rotate(0deg); transition: 0.3s" viewBox="0 0 1440 490" version="1.1" xmlns="http://www.w3.org/2000/svg"><defs><linearGradient id="sw-gradient-0" x1="0" x2="0" y1="1" y2="0"><stop stop-color="rgba(1, 126, 255, 1)" offset="0%"/><stop stop-color="rgba(255, 255, 255, 1)" offset="100%"/></linearGradient></defs><path style="transform:translate(0, 0px); opacity:1" fill="url(#sw-gradient-0)" d="M0,441L80,408.3C160,376,320,310,480,302.2C640,294,800,343,960,343C1120,343,1280,294,1440,261.3C1600,229,1760,212,1920,187.8C2080,163,2240,131,2400,163.3C2560,196,2720,294,2880,351.2C3040,408,3200,425,3360,375.7C3520,327,3680,212,3840,163.3C4000,114,4160,131,4320,187.8C4480,245,4640,343,4800,343C4960,343,5120,245,5280,196C5440,147,5600,147,5760,171.5C5920,196,6080,245,6240,277.7C6400,310,6560,327,6720,285.8C6880,245,7040,147,7200,122.5C7360,98,7520,147,7680,155.2C7840,163,8000,131,8160,155.2C8320,180,8480,261,8640,294C8800,327,8960,310,9120,310.3C9280,310,9440,327,9600,277.7C9760,229,9920,114,10080,73.5C10240,33,10400,65,10560,138.8C10720,212,10880,327,11040,367.5C11200,408,11360,376,11440,359.3L11520,343L11520,490L11440,490C11360,490,11200,490,11040,490C10880,490,10720,490,10560,490C10400,490,10240,490,10080,490C9920,490,9760,490,9600,490C9440,490,9280,490,9120,490C8960,490,8800,490,8640,490C8480,490,8320,490,8160,490C8000,490,7840,490,7680,490C7520,490,7360,490,7200,490C7040,490,6880,490,6720,490C6560,490,6400,490,6240,490C6080,490,5920,490,5760,490C5600,490,5440,490,5280,490C5120,490,4960,490,4800,490C4640,490,4480,490,4320,490C4160,490,4000,490,3840,490C3680,490,3520,490,3360,490C3200,490,3040,490,2880,490C2720,490,2560,490,2400,490C2240,490,2080,490,1920,490C1760,490,1600,490,1440,490C1280,490,1120,490,960,490C800,490,640,490,480,490C320,490,160,490,80,490L0,490Z"/><defs><linearGradient id="sw-gradient-1" x1="0" x2="0" y1="1" y2="0"><stop stop-color="rgba(1, 126, 255, 1)" offset="0%"/><stop stop-color="rgba(255, 255, 255, 1)" offset="100%"/></linearGradient></defs><path style="transform:translate(0, 50px); opacity:0.9" fill="url(#sw-gradient-1)" d="M0,343L80,351.2C160,359,320,376,480,359.3C640,343,800,294,960,277.7C1120,261,1280,278,1440,285.8C1600,294,1760,294,1920,253.2C2080,212,2240,131,2400,81.7C2560,33,2720,16,2880,49C3040,82,3200,163,3360,171.5C3520,180,3680,114,3840,122.5C4000,131,4160,212,4320,204.2C4480,196,4640,98,4800,106.2C4960,114,5120,229,5280,253.2C5440,278,5600,212,5760,171.5C5920,131,6080,114,6240,98C6400,82,6560,65,6720,106.2C6880,147,7040,245,7200,253.2C7360,261,7520,180,7680,147C7840,114,8000,131,8160,155.2C8320,180,8480,212,8640,212.3C8800,212,8960,180,9120,204.2C9280,229,9440,310,9600,310.3C9760,310,9920,229,10080,220.5C10240,212,10400,278,10560,253.2C10720,229,10880,114,11040,122.5C11200,131,11360,261,11440,326.7L11520,392L11520,490L11440,490C11360,490,11200,490,11040,490C10880,490,10720,490,10560,490C10400,490,10240,490,10080,490C9920,490,9760,490,9600,490C9440,490,9280,490,9120,490C8960,490,8800,490,8640,490C8480,490,8320,490,8160,490C8000,490,7840,490,7680,490C7520,490,7360,490,7200,490C7040,490,6880,490,6720,490C6560,490,6400,490,6240,490C6080,490,5920,490,5760,490C5600,490,5440,490,5280,490C5120,490,4960,490,4800,490C4640,490,4480,490,4320,490C4160,490,4000,490,3840,490C3680,490,3520,490,3360,490C3200,490,3040,490,2880,490C2720,490,2560,490,2400,490C2240,490,2080,490,1920,490C1760,490,1600,490,1440,490C1280,490,1120,490,960,490C800,490,640,490,480,490C320,490,160,490,80,490L0,490Z"/></svg>