<?xml version="1.0" standalone="no"?>
<svg xmlns:xlink="http://www.w3.org/1999/xlink" id="wave" style="height: 100px; width: 100%; transform:rotate(180deg); transition: 0.3s" viewBox="0 0 1440 490" version="1.1" xmlns="http://www.w3.org/2000/svg"><defs><linearGradient id="sw-gradient-0" x1="0" x2="0" y1="1" y2="0"><stop stop-color="rgba(1, 126, 255, 1)" offset="0%"/><stop stop-color="rgba(255, 255, 255, 1)" offset="100%"/></linearGradient></defs><path style="transform:translate(0, 0px); opacity:1" fill="url(#sw-gradient-0)" d="M0,196L80,204.2C160,212,320,229,480,220.5C640,212,800,180,960,212.3C1120,245,1280,343,1440,351.2C1600,359,1760,278,1920,228.7C2080,180,2240,163,2400,138.8C2560,114,2720,82,2880,89.8C3040,98,3200,147,3360,196C3520,245,3680,294,3840,261.3C4000,229,4160,114,4320,81.7C4480,49,4640,98,4800,122.5C4960,147,5120,147,5280,147C5440,147,5600,147,5760,163.3C5920,180,6080,212,6240,204.2C6400,196,6560,147,6720,163.3C6880,180,7040,261,7200,302.2C7360,343,7520,343,7680,334.8C7840,327,8000,310,8160,261.3C8320,212,8480,131,8640,138.8C8800,147,8960,245,9120,294C9280,343,9440,343,9600,310.3C9760,278,9920,212,10080,220.5C10240,229,10400,310,10560,285.8C10720,261,10880,131,11040,130.7C11200,131,11360,261,11440,326.7L11520,392L11520,490L11440,490C11360,490,11200,490,11040,490C10880,490,10720,490,10560,490C10400,490,10240,490,10080,490C9920,490,9760,490,9600,490C9440,490,9280,490,9120,490C8960,490,8800,490,8640,490C8480,490,8320,490,8160,490C8000,490,7840,490,7680,490C7520,490,7360,490,7200,490C7040,490,6880,490,6720,490C6560,490,6400,490,6240,490C6080,490,5920,490,5760,490C5600,490,5440,490,5280,490C5120,490,4960,490,4800,490C4640,490,4480,490,4320,490C4160,490,4000,490,3840,490C3680,490,3520,490,3360,490C3200,490,3040,490,2880,490C2720,490,2560,490,2400,490C2240,490,2080,490,1920,490C1760,490,1600,490,1440,490C1280,490,1120,490,960,490C800,490,640,490,480,490C320,490,160,490,80,490L0,490Z"/><defs><linearGradient id="sw-gradient-1" x1="0" x2="0" y1="1" y2="0"><stop stop-color="rgba(1, 126, 255, 1)" offset="0%"/><stop stop-color="rgba(255, 255, 255, 1)" offset="100%"/></linearGradient></defs><path style="transform:translate(0, 50px); opacity:0.9" fill="url(#sw-gradient-1)" d="M0,343L80,334.8C160,327,320,310,480,285.8C640,261,800,229,960,204.2C1120,180,1280,163,1440,130.7C1600,98,1760,49,1920,57.2C2080,65,2240,131,2400,130.7C2560,131,2720,65,2880,65.3C3040,65,3200,131,3360,196C3520,261,3680,327,3840,310.3C4000,294,4160,196,4320,171.5C4480,147,4640,196,4800,196C4960,196,5120,147,5280,122.5C5440,98,5600,98,5760,89.8C5920,82,6080,65,6240,49C6400,33,6560,16,6720,40.8C6880,65,7040,131,7200,179.7C7360,229,7520,261,7680,269.5C7840,278,8000,261,8160,228.7C8320,196,8480,147,8640,130.7C8800,114,8960,131,9120,138.8C9280,147,9440,147,9600,122.5C9760,98,9920,49,10080,40.8C10240,33,10400,65,10560,98C10720,131,10880,163,11040,147C11200,131,11360,65,11440,32.7L11520,0L11520,490L11440,490C11360,490,11200,490,11040,490C10880,490,10720,490,10560,490C10400,490,10240,490,10080,490C9920,490,9760,490,9600,490C9440,490,9280,490,9120,490C8960,490,8800,490,8640,490C8480,490,8320,490,8160,490C8000,490,7840,490,7680,490C7520,490,7360,490,7200,490C7040,490,6880,490,6720,490C6560,490,6400,490,6240,490C6080,490,5920,490,5760,490C5600,490,5440,490,5280,490C5120,490,4960,490,4800,490C4640,490,4480,490,4320,490C4160,490,4000,490,3840,490C3680,490,3520,490,3360,490C3200,490,3040,490,2880,490C2720,490,2560,490,2400,490C2240,490,2080,490,1920,490C1760,490,1600,490,1440,490C1280,490,1120,490,960,490C800,490,640,490,480,490C320,490,160,490,80,490L0,490Z"/></svg>